<svg width="23" height="26" viewBox="0 0 23 26" fill="none" xmlns="http://www.w3.org/2000/svg">
<path d="M4.25101 25.6263C3.52843 25.6263 2.91039 25.369 2.39689 24.8544C1.88339 24.3398 1.62609 23.7228 1.62501 23.0035V2.87625H0.812511C0.581761 2.87625 0.388928 2.79825 0.234011 2.64225C0.0790946 2.48625 0.00109446 2.29288 1.11301e-05 2.06213C-0.0010722 1.83138 0.0769279 1.63854 0.234011 1.48363C0.391095 1.32871 0.583928 1.25125 0.812511 1.25125H6.50001C6.50001 0.915417 6.62459 0.622917 6.87376 0.37375C7.12293 0.124583 7.41543 0 7.75126 0H14.9988C15.3346 0 15.6271 0.124583 15.8763 0.37375C16.1254 0.622917 16.25 0.915417 16.25 1.25125H21.9375C22.1683 1.25125 22.3611 1.32925 22.516 1.48525C22.6709 1.64125 22.7489 1.83463 22.75 2.06538C22.7511 2.29613 22.6731 2.48896 22.516 2.64387C22.3589 2.79879 22.1661 2.87625 21.9375 2.87625H21.125V23.0019C21.125 23.7234 20.8677 24.3409 20.3531 24.8544C19.8386 25.3679 19.2211 25.6252 18.5006 25.6263H4.25101ZM8.62551 20.7513C8.85626 20.7513 9.04964 20.6733 9.20564 20.5173C9.36164 20.3613 9.43909 20.1684 9.43801 19.9388V6.93875C9.43801 6.708 9.36001 6.51517 9.20401 6.36025C9.04801 6.20533 8.85464 6.12733 8.62389 6.12625C8.39314 6.12517 8.2003 6.20317 8.04539 6.36025C7.89047 6.51733 7.81301 6.71017 7.81301 6.93875V19.9388C7.81301 20.1695 7.89101 20.3623 8.04701 20.5173C8.20301 20.6733 8.39584 20.7513 8.62551 20.7513ZM14.1261 20.7513C14.3569 20.7513 14.5497 20.6733 14.7046 20.5173C14.8596 20.3613 14.937 20.1684 14.937 19.9388V6.93875C14.937 6.708 14.859 6.51517 14.703 6.36025C14.547 6.20425 14.3542 6.12625 14.1245 6.12625C13.8938 6.12625 13.7004 6.20425 13.5444 6.36025C13.3884 6.51625 13.3109 6.70908 13.312 6.93875V19.9388C13.312 20.1695 13.39 20.3623 13.546 20.5173C13.702 20.6722 13.8954 20.7502 14.1261 20.7513Z" fill="#F51014"/>
</svg>
