<svg width="34" height="25" viewBox="0 0 34 25" fill="none" xmlns="http://www.w3.org/2000/svg">
<path d="M33.682 11.9925C32.3588 8.56985 30.0618 5.60994 27.0747 3.4786C24.0876 1.34725 20.5414 0.137895 16.8745 -4.18214e-10C13.2076 0.137895 9.66146 1.34725 6.67437 3.4786C3.68729 5.60994 1.3902 8.56985 0.0670214 11.9925C-0.0223405 12.2397 -0.0223405 12.5103 0.0670214 12.7575C1.3902 16.1801 3.68729 19.1401 6.67437 21.2714C9.66146 23.4027 13.2076 24.6121 16.8745 24.75C20.5414 24.6121 24.0876 23.4027 27.0747 21.2714C30.0618 19.1401 32.3588 16.1801 33.682 12.7575C33.7714 12.5103 33.7714 12.2397 33.682 11.9925ZM16.8745 19.6875C15.4282 19.6875 14.0144 19.2586 12.8119 18.4551C11.6094 17.6516 10.6721 16.5096 10.1187 15.1734C9.56519 13.8372 9.42037 12.3669 9.70253 10.9484C9.98468 9.52992 10.6811 8.22695 11.7038 7.20428C12.7265 6.18161 14.0294 5.48516 15.4479 5.20301C16.8664 4.92085 18.3367 5.06567 19.6729 5.61913C21.0091 6.1726 22.1511 7.10986 22.9546 8.31239C23.7582 9.51493 24.187 10.9287 24.187 12.375C24.184 14.3135 23.4127 16.1717 22.042 17.5424C20.6712 18.9131 18.813 19.6845 16.8745 19.6875Z" fill="#0DCAF0"/>
</svg>
